<svg width="150" height="100" xmlns="http://www.w3.org/2000/svg">
  <!-- Fondo base terrestre -->
  <defs>
    <linearGradient id="earthGradient" x1="0%" y1="0%" x2="100%" y2="100%">
      <stop offset="0%" style="stop-color:#1a3a1a;stop-opacity:1" />
      <stop offset="50%" style="stop-color:#2d5a2d;stop-opacity:1" />
      <stop offset="100%" style="stop-color:#1a3a1a;stop-opacity:1" />
    </linearGradient>
    <linearGradient id="waterGradient" x1="0%" y1="0%" x2="0%" y2="100%">
      <stop offset="0%" style="stop-color:#1a4d6d;stop-opacity:1" />
      <stop offset="100%" style="stop-color:#0d2a3d;stop-opacity:1" />
    </linearGradient>
  </defs>
  
  <!-- Fondo base -->
  <rect width="150" height="100" fill="url(#earthGradient)"/>
  
  <!-- Agua -->
  <path d="M 0 60 Q 40 55, 80 60 T 150 55 L 150 100 L 0 100 Z" fill="url(#waterGradient)" opacity="0.8"/>
  
  <!-- Manchas de vegetación oscuras -->
  <ellipse cx="30" cy="35" rx="25" ry="20" fill="#0d2a1a" opacity="0.6"/>
  <ellipse cx="90" cy="25" rx="35" ry="25" fill="#0d2a1a" opacity="0.5"/>
  <ellipse cx="120" cy="45" rx="20" ry="18" fill="#0d2a1a" opacity="0.7"/>
  
  <!-- Áreas más claras (campos/urbano) -->
  <rect x="10" y="70" width="30" height="20" fill="#3d4a2d" opacity="0.5"/>
  <rect x="60" y="65" width="40" height="25" fill="#3d4a2d" opacity="0.4"/>
  
  <!-- Carreteras (líneas grises finas) -->
  <line x1="0" y1="50" x2="150" y2="48" stroke="#555555" stroke-width="1.5" opacity="0.8"/>
  <line x1="45" y1="0" x2="48" y2="100" stroke="#555555" stroke-width="1" opacity="0.6"/>
  <line x1="100" y1="0" x2="95" y2="100" stroke="#555555" stroke-width="1" opacity="0.6"/>
  
  <!-- Pequeños edificios/estructuras -->
  <rect x="42" y="45" width="4" height="4" fill="#8a8a8a" opacity="0.9"/>
  <rect x="47" y="47" width="3" height="3" fill="#8a8a8a" opacity="0.9"/>
  <rect x="96" y="72" width="5" height="5" fill="#8a8a8a" opacity="0.9"/>
  <rect x="102" y="70" width="4" height="4" fill="#8a8a8a" opacity="0.9"/>
  
  <!-- Texto overlay -->
  <text x="75" y="92" font-family="Arial, sans-serif" font-size="11" font-weight="bold" fill="white" text-anchor="middle" opacity="0.9">SATÉLITE</text>
</svg>
